<svg width="160" height="73" viewBox="0 0 160 73" fill="none" xmlns="http://www.w3.org/2000/svg">
<path d="M1.13636 21.7841V17.7273H20.25V21.7841H13.125V41H8.26136V21.7841H1.13636ZM28.6619 41.3409C26.8968 41.3409 25.3703 40.9659 24.0824 40.2159C22.8021 39.4583 21.8134 38.4053 21.1165 37.0568C20.4195 35.7008 20.071 34.1288 20.071 32.3409C20.071 30.5379 20.4195 28.9621 21.1165 27.6136C21.8134 26.2576 22.8021 25.2045 24.0824 24.4545C25.3703 23.697 26.8968 23.3182 28.6619 23.3182C30.4271 23.3182 31.9498 23.697 33.2301 24.4545C34.518 25.2045 35.5104 26.2576 36.2074 27.6136C36.9044 28.9621 37.2528 30.5379 37.2528 32.3409C37.2528 34.1288 36.9044 35.7008 36.2074 37.0568C35.5104 38.4053 34.518 39.4583 33.2301 40.2159C31.9498 40.9659 30.4271 41.3409 28.6619 41.3409ZM28.6847 37.5909C29.4877 37.5909 30.1581 37.3636 30.696 36.9091C31.2339 36.447 31.6392 35.8182 31.9119 35.0227C32.1922 34.2273 32.3324 33.322 32.3324 32.3068C32.3324 31.2917 32.1922 30.3864 31.9119 29.5909C31.6392 28.7955 31.2339 28.1667 30.696 27.7045C30.1581 27.2424 29.4877 27.0114 28.6847 27.0114C27.8741 27.0114 27.1922 27.2424 26.6392 27.7045C26.0938 28.1667 25.6809 28.7955 25.4006 29.5909C25.1278 30.3864 24.9915 31.2917 24.9915 32.3068C24.9915 33.322 25.1278 34.2273 25.4006 35.0227C25.6809 35.8182 26.0938 36.447 26.6392 36.9091C27.1922 37.3636 27.8741 37.5909 28.6847 37.5909ZM48.7415 41H40.4915V17.7273H48.8097C51.1506 17.7273 53.1657 18.1932 54.8551 19.125C56.5445 20.0492 57.8438 21.3788 58.7528 23.1136C59.6695 24.8485 60.1278 26.9242 60.1278 29.3409C60.1278 31.7652 59.6695 33.8485 58.7528 35.5909C57.8438 37.3333 56.5369 38.6705 54.8324 39.6023C53.1354 40.5341 51.1051 41 48.7415 41ZM45.4119 36.7841H48.5369C49.9915 36.7841 51.215 36.5265 52.2074 36.0114C53.2074 35.4886 53.9574 34.6818 54.4574 33.5909C54.965 32.4924 55.2188 31.0758 55.2188 29.3409C55.2188 27.6212 54.965 26.2159 54.4574 25.125C53.9574 24.0341 53.2112 23.2311 52.2188 22.7159C51.2263 22.2008 50.0028 21.9432 48.5483 21.9432H45.4119V36.7841ZM71.5682 41.3409C69.803 41.3409 68.2765 40.9659 66.9886 40.2159C65.7083 39.4583 64.7197 38.4053 64.0227 37.0568C63.3258 35.7008 62.9773 34.1288 62.9773 32.3409C62.9773 30.5379 63.3258 28.9621 64.0227 27.6136C64.7197 26.2576 65.7083 25.2045 66.9886 24.4545C68.2765 23.697 69.803 23.3182 71.5682 23.3182C73.3333 23.3182 74.8561 23.697 76.1364 24.4545C77.4242 25.2045 78.4167 26.2576 79.1136 27.6136C79.8106 28.9621 80.1591 30.5379 80.1591 32.3409C80.1591 34.1288 79.8106 35.7008 79.1136 37.0568C78.4167 38.4053 77.4242 39.4583 76.1364 40.2159C74.8561 40.9659 73.3333 41.3409 71.5682 41.3409ZM71.5909 37.5909C72.3939 37.5909 73.0644 37.3636 73.6023 36.9091C74.1402 36.447 74.5455 35.8182 74.8182 35.0227C75.0985 34.2273 75.2386 33.322 75.2386 32.3068C75.2386 31.2917 75.0985 30.3864 74.8182 29.5909C74.5455 28.7955 74.1402 28.1667 73.6023 27.7045C73.0644 27.2424 72.3939 27.0114 71.5909 27.0114C70.7803 27.0114 70.0985 27.2424 69.5455 27.7045C69 28.1667 68.5871 28.7955 68.3068 29.5909C68.0341 30.3864 67.8977 31.2917 67.8977 32.3068C67.8977 33.322 68.0341 34.2273 68.3068 35.0227C68.5871 35.8182 69 36.447 69.5455 36.9091C70.0985 37.3636 70.7803 37.5909 71.5909 37.5909Z" fill="black"/>
<path d="M138.032 17.0851H111.032C107.719 17.0851 105.032 19.8087 105.032 23.1684V50.5434C105.032 53.9032 107.719 56.6268 111.032 56.6268H138.032C141.346 56.6268 144.032 53.9032 144.032 50.5434V23.1684C144.032 19.8087 141.346 17.0851 138.032 17.0851Z" stroke="#268AFF" stroke-width="2" stroke-linecap="round" stroke-linejoin="round"/>
<path d="M103 45.625H100C98.4087 45.625 96.8826 44.9841 95.7574 43.8432C94.6321 42.7024 94 41.1551 94 39.5417V12.1667C94 10.5533 94.6321 9.00596 95.7574 7.86511C96.8826 6.72426 98.4087 6.08334 100 6.08334H127C128.591 6.08334 130.117 6.72426 131.243 7.86511C132.368 9.00596 133 10.5533 133 12.1667V15.2083" stroke="#268AFF" stroke-width="2" stroke-linecap="round" stroke-linejoin="round"/>
<path d="M151.484 23.2979L125.403 49.7021L113.548 37.7002" stroke="#43FF4A" stroke-width="2" stroke-linecap="round" stroke-linejoin="round"/>
</svg>
